<svg width="80" height="32" viewBox="0 0 80 32" fill="none" xmlns="http://www.w3.org/2000/svg">
<rect x="0.5" width="79" height="32" rx="16" fill="#71A894"/>
<path d="M14.5 9.58594V21H12.6172V11.8203L9.82812 12.7656V11.2109L14.2734 9.58594H14.5ZM28.0787 18.0703C28.0787 17.8359 28.0423 17.6276 27.9694 17.4453C27.9017 17.263 27.7793 17.0964 27.6022 16.9453C27.4251 16.7943 27.1751 16.6484 26.8522 16.5078C26.5345 16.362 26.1282 16.2135 25.6334 16.0625C25.0918 15.8958 24.5918 15.7109 24.1334 15.5078C23.6803 15.2995 23.2845 15.0599 22.9459 14.7891C22.6074 14.513 22.3444 14.1979 22.1569 13.8438C21.9694 13.4844 21.8756 13.0703 21.8756 12.6016C21.8756 12.138 21.972 11.7161 22.1647 11.3359C22.3626 10.9557 22.6412 10.6276 23.0006 10.3516C23.3652 10.0703 23.7949 9.85417 24.2897 9.70312C24.7845 9.54688 25.3314 9.46875 25.9303 9.46875C26.7741 9.46875 27.5006 9.625 28.11 9.9375C28.7246 10.25 29.1959 10.6693 29.5241 11.1953C29.8574 11.7214 30.0241 12.3021 30.0241 12.9375H28.0787C28.0787 12.5625 27.998 12.2318 27.8366 11.9453C27.6803 11.6536 27.4407 11.4245 27.1178 11.2578C26.8001 11.0911 26.3965 11.0078 25.9069 11.0078C25.4433 11.0078 25.0579 11.0781 24.7506 11.2188C24.4433 11.3594 24.2142 11.5495 24.0631 11.7891C23.9121 12.0286 23.8366 12.2995 23.8366 12.6016C23.8366 12.8151 23.886 13.0104 23.985 13.1875C24.084 13.3594 24.235 13.5208 24.4381 13.6719C24.6412 13.8177 24.8965 13.9557 25.2037 14.0859C25.511 14.2161 25.873 14.3411 26.2897 14.4609C26.9199 14.6484 27.4694 14.8568 27.9381 15.0859C28.4069 15.3099 28.7975 15.5651 29.11 15.8516C29.4225 16.138 29.6569 16.4635 29.8131 16.8281C29.9694 17.1875 30.0475 17.5964 30.0475 18.0547C30.0475 18.5339 29.9511 18.9661 29.7584 19.3516C29.5657 19.7318 29.2897 20.0573 28.9303 20.3281C28.5761 20.5938 28.1491 20.7995 27.6491 20.9453C27.1543 21.0859 26.6022 21.1562 25.9928 21.1562C25.4459 21.1562 24.9069 21.0833 24.3756 20.9375C23.8496 20.7917 23.3704 20.5703 22.9381 20.2734C22.5058 19.9714 22.1621 19.5964 21.9069 19.1484C21.6517 18.6953 21.5241 18.1667 21.5241 17.5625H23.485C23.485 17.9323 23.5475 18.2474 23.6725 18.5078C23.8027 18.7682 23.9824 18.9818 24.2116 19.1484C24.4407 19.3099 24.7064 19.4297 25.0084 19.5078C25.3157 19.5859 25.6439 19.625 25.9928 19.625C26.4511 19.625 26.834 19.5599 27.1412 19.4297C27.4537 19.2995 27.6881 19.1172 27.8444 18.8828C28.0006 18.6484 28.0787 18.3776 28.0787 18.0703ZM38.9775 14.375V15.9297H32.9384V14.375H38.9775ZM33.4228 9.625V21H31.4619V9.625H33.4228ZM40.4853 9.625V21H38.5322V9.625H40.4853ZM47.0716 11.1406L43.6731 21H41.6184L45.8997 9.625H47.2122L47.0716 11.1406ZM49.9153 21L46.5091 11.1406L46.3606 9.625H47.6809L51.9778 21H49.9153ZM49.7513 16.7812V18.3359H43.5638V16.7812H49.7513ZM52.9313 9.625H56.9547C57.8193 9.625 58.5563 9.75521 59.1656 10.0156C59.775 10.276 60.2411 10.6615 60.5641 11.1719C60.8922 11.6771 61.0563 12.3021 61.0563 13.0469C61.0563 13.6146 60.9521 14.1146 60.7438 14.5469C60.5354 14.9792 60.2411 15.3438 59.8609 15.6406C59.4807 15.9323 59.0276 16.1589 58.5016 16.3203L57.9078 16.6094H54.2906L54.275 15.0547H56.9859C57.4547 15.0547 57.8453 14.9714 58.1578 14.8047C58.4703 14.638 58.7047 14.4115 58.8609 14.125C59.0224 13.8333 59.1031 13.5052 59.1031 13.1406C59.1031 12.7448 59.025 12.401 58.8688 12.1094C58.7177 11.8125 58.4833 11.5859 58.1656 11.4297C57.8479 11.2682 57.4443 11.1875 56.9547 11.1875H54.8922V21H52.9313V9.625ZM59.4234 21L56.7516 15.8906L58.8063 15.8828L61.5172 20.8984V21H59.4234ZM70.1347 19.4453V21H64.0956V19.4453H70.1347ZM64.6503 9.625V21H62.6894V9.625H64.6503ZM69.3456 14.375V15.9062H64.0956V14.375H69.3456ZM70.0956 9.625V11.1875H64.0956V9.625H70.0956Z" fill="white"/>
</svg>
